<svg xmlns="http://www.w3.org/2000/svg" width="18" height="18" viewBox="0 0 96 59.262">
          <g id="Group_1" data-name="Group 1" transform="translate(1 -13.369)">
            <text id="HSE_N_ARP" data-name="HSE  N  ARP" transform="translate(11 48)" fill="#ff6f00" stroke="#f7375d" stroke-width="0.4" font-size="13" font-family="SegoeUI-Bold, Segoe UI" font-weight="700"><tspan x="0" y="0" xml:space="preserve">HSE  N  ARP</tspan></text>
            <line id="Line_1" data-name="Line 1" x1="16" y2="59" transform="translate(39.5 13.5)" fill="none" stroke="#ff6f00" stroke-width="1"/>
            <g id="Subtraction_1" data-name="Subtraction 1" transform="translate(-2 19)" fill="#ff6f00">
              <path d="M 38.74970245361328 47.54612731933594 L 1.468071103096008 24.00029563903809 L 38.74970245361328 0.4535841345787048 L 38.74970245361328 2.719729900360107 L 38.26156997680664 3.028029203414917 L 18.44070243835449 15.54672908782959 C 8.940281867980957 21.54613876342773 5.390661716461182 23.78894996643066 5.390661716461182 23.78894996643066 L 5.05610179901123 24.0003490447998 L 5.390701770782471 24.211669921875 L 38.74970245361328 45.28009033203125 L 38.74970245361328 47.54612731933594 Z" stroke="none"/>
              <path d="M 38.49970245361328 47.09255218505859 L 38.49970245361328 45.41788864135742 L 5.257211685180664 24.42304992675781 L 4.587991714477539 24.00038909912109 L 5.257121562957764 23.57761001586914 C 5.257121562957764 23.57761001586914 8.806751251220703 21.33478927612305 18.30720138549805 15.33535957336426 L 38.12807083129883 2.816659212112427 L 38.49970245361328 2.581940412521362 L 38.49970245361328 0.907168984413147 L 1.936243414878845 24.00028991699219 L 38.49970245361328 47.09255218505859 M 38.99970245361328 47.99969863891602 L 38.99817276000977 47.99874114990234 L 0.9999016523361206 24.00029945373535 L 38.99970245361328 -6.805419729971618e-07 L 38.99970245361328 2.857519388198853 L 38.39507293701172 3.239399433135986 L 18.5742015838623 15.75809955596924 C 9.07380199432373 21.75749969482422 5.5242018699646 24.00029945373535 5.5242018699646 24.00029945373535 L 38.99970245361328 45.14229965209961 L 38.99970245361328 47.99789047241211 L 38.99970245361328 47.99969863891602 Z" stroke="none" fill="#f7375d"/>
            </g>
            <g id="Subtraction_3" data-name="Subtraction 3" transform="translate(95 67) rotate(180)" fill="#ff6f00">
              <path d="M 37.74980163574219 47.54612731933594 L 0.4681702852249146 24.00029373168945 L 37.74980163574219 0.453582227230072 L 37.74980163574219 2.719727993011475 L 37.26166915893555 3.028027296066284 L 17.4408016204834 15.54672718048096 C 7.940381050109863 21.5461368560791 4.390760898590088 23.78894805908203 4.390760898590088 23.78894805908203 L 4.056200981140137 24.00034713745117 L 4.390800952911377 24.21166801452637 L 37.74980163574219 45.28009033203125 L 37.74980163574219 47.54612731933594 Z" stroke="none"/>
              <path d="M 37.49980163574219 47.09255218505859 L 37.49980163574219 45.41788482666016 L 4.25731086730957 24.42304801940918 L 3.588090896606445 24.00038719177246 L 4.25722074508667 23.57760810852051 C 4.25722074508667 23.57760810852051 7.806850910186768 21.33478736877441 17.30730056762695 15.33535766601563 L 37.12817001342773 2.816657304763794 L 37.49980163574219 2.581938505172729 L 37.49980163574219 0.9071670770645142 L 0.9363425970077515 24.00028800964355 L 37.49980163574219 47.09255218505859 M 37.99980163574219 47.99969863891602 L 37.99827194213867 47.99873733520508 L 8.178710686479462e-07 24.00029754638672 L 37.99980163574219 -2.587890548966243e-06 L 37.99980163574219 2.85751748085022 L 37.39517211914063 3.239397525787354 L 17.57430076599121 15.75809764862061 C 8.073901176452637 21.75749778747559 4.524301052093506 24.00029754638672 4.524301052093506 24.00029754638672 L 37.99980163574219 45.14229583740234 L 37.99980163574219 47.99788665771484 L 37.99980163574219 47.99969863891602 Z" stroke="none" fill="#f7375d"/>
            </g>
          </g>
        </svg>